<svg width="19" height="19" viewBox="0 0 19 19" fill="none" xmlns="http://www.w3.org/2000/svg">
<g clip-path="url(#clip0_894_58340)">
<path d="M0.599609 0.165649H18.5996V18.1656H0.599609V0.165649Z" fill="white"/>
<path d="M12.3956 7.43015L11.3351 6.36965L4.34961 13.3552V14.4157H5.41011L12.3956 7.43015ZM13.4561 6.36965L14.5166 5.30915L13.4561 4.24865L12.3956 5.30915L13.4561 6.36965ZM6.03111 15.9157H2.84961V12.7334L12.9259 2.65715C13.0665 2.51655 13.2572 2.43756 13.4561 2.43756C13.655 2.43756 13.8457 2.51655 13.9864 2.65715L16.1081 4.7789C16.2487 4.91955 16.3277 5.11028 16.3277 5.30915C16.3277 5.50802 16.2487 5.69876 16.1081 5.8394L6.03186 15.9157H6.03111Z" fill="#606875"/>
</g>
<defs>
<clipPath id="clip0_894_58340">
<rect width="18" height="18" fill="white" transform="translate(0.599609 0.165649)"/>
</clipPath>
</defs>
</svg>
