<svg width="19" height="19" viewBox="0 0 19 19" fill="none" xmlns="http://www.w3.org/2000/svg">
<g clip-path="url(#clip0_894_58905)">
<path d="M0.599609 0.727356H18.5996V18.7274H0.599609V0.727356Z" fill="white"/>
<path d="M12.3956 7.99186L11.3351 6.93136L4.34961 13.9169V14.9774H5.41011L12.3956 7.99186ZM13.4561 6.93136L14.5166 5.87086L13.4561 4.81036L12.3956 5.87086L13.4561 6.93136ZM6.03111 16.4774H2.84961V13.2951L12.9259 3.21886C13.0665 3.07825 13.2572 2.99927 13.4561 2.99927C13.655 2.99927 13.8457 3.07825 13.9864 3.21886L16.1081 5.34061C16.2487 5.48125 16.3277 5.67198 16.3277 5.87086C16.3277 6.06973 16.2487 6.26046 16.1081 6.40111L6.03186 16.4774H6.03111Z" fill="#606875"/>
</g>
<defs>
<clipPath id="clip0_894_58905">
<rect width="18" height="18" fill="white" transform="translate(0.599609 0.727356)"/>
</clipPath>
</defs>
</svg>
